<svg width="48" height="48" viewBox="0 0 48 48" fill="none" xmlns="http://www.w3.org/2000/svg">
<circle cx="24" cy="24" r="24" fill="#EF6D58"/>
<path fill-rule="evenodd" clip-rule="evenodd" d="M24 16C21.8267 16 21.556 16.0093 20.7013 16.0493C17.7947 16.1827 16.1813 17.7947 16.048 20.7013C16.0093 21.556 16 21.828 16 24C16 26.1733 16.0093 26.4453 16.048 27.2987C16.1813 30.204 17.7947 31.8187 20.7013 31.952C21.556 31.9907 21.8267 32 24 32C26.1733 32 26.4453 31.9907 27.3 31.952C30.2013 31.8187 31.8213 30.2067 31.952 27.2987C31.9907 26.4453 32 26.1733 32 24C32 21.828 31.9907 21.556 31.952 20.7013C31.8213 17.7987 30.2067 16.1813 27.3 16.0493C26.4453 16.0093 26.1733 16 24 16ZM24.0001 17.4426C26.1361 17.4426 26.3894 17.4506 27.2334 17.4893C29.4027 17.588 30.4134 18.616 30.5134 20.768C30.5507 21.612 30.5587 21.864 30.5587 24C30.5587 26.136 30.5507 26.3893 30.5134 27.232C30.4134 29.3826 29.4041 30.4133 27.2334 30.512C26.3894 30.5493 26.1374 30.5586 24.0001 30.5586C21.8641 30.5586 21.6107 30.5506 20.7681 30.512C18.5947 30.412 17.5881 29.38 17.4881 27.232C17.4507 26.3893 17.4414 26.136 17.4414 24C17.4414 21.864 17.4507 21.6106 17.4881 20.768C17.5867 18.6146 18.5974 17.5866 20.7681 17.488C21.6107 17.4493 21.8641 17.4426 24.0001 17.4426ZM19.8916 24.0001C19.8916 21.7308 21.7316 19.8921 23.9996 19.8921C26.2676 19.8921 28.1076 21.7321 28.1076 24.0001C28.1076 26.2694 26.2676 28.1081 23.9996 28.1081C21.7316 28.1081 19.8916 26.2694 19.8916 24.0001ZM23.9997 26.6666C22.5263 26.6666 21.333 25.4733 21.333 23.9999C21.333 22.5279 22.5263 21.3333 23.9997 21.3333C25.4717 21.3333 26.6677 22.5266 26.6677 23.9999C26.6677 25.4733 25.4717 26.6666 23.9997 26.6666ZM27.3096 19.7308C27.3096 19.2001 27.7402 18.7708 28.2696 18.7708C28.8016 18.7708 29.2309 19.2001 29.2309 19.7308C29.2309 20.2614 28.8002 20.6908 28.2696 20.6908C27.7389 20.6908 27.3096 20.2601 27.3096 19.7308Z" fill="white"/>
</svg>
